solid BAR
  facet normal 0.000000e+00 0.000000e+00 -1.000000e+00
    outer loop
      vertex -2.165002e+01 1.250068e+01 -1.500000e+02
      vertex 2.165002e+01 1.250068e+01 -1.500000e+02
      vertex 2.500000e+01 -3.061617e-15 -1.500000e+02
    endloop
  endfacet
  facet normal 9.659175e-01 2.588503e-01 0.000000e+00
    outer loop
      vertex 2.500000e+01 -3.061617e-15 1.500000e+02
      vertex 2.500000e+01 -3.061617e-15 -1.500000e+02
      vertex 2.165002e+01 1.250068e+01 -1.500000e+02
    endloop
  endfacet
  facet normal 0.000000e+00 0.000000e+00 -1.000000e+00
    outer loop
      vertex -2.500000e+01 3.061617e-15 -1.500000e+02
      vertex -2.165002e+01 1.250068e+01 -1.500000e+02
      vertex 2.500000e+01 -3.061617e-15 -1.500000e+02
    endloop
  endfacet
  facet normal 0.000000e+00 0.000000e+00 -1.000000e+00
    outer loop
      vertex 2.165002e+01 -1.250068e+01 -1.500000e+02
      vertex -2.500000e+01 3.061617e-15 -1.500000e+02
      vertex 2.500000e+01 -3.061617e-15 -1.500000e+02
    endloop
  endfacet
  facet normal 9.659159e-01 -2.588499e-01 -1.773054e-03
    outer loop
      vertex 2.280638e+01 -1.024055e+01 1.500000e+02
      vertex 2.165002e+01 -1.250068e+01 -1.500000e+02
      vertex 2.500000e+01 -3.061617e-15 -1.500000e+02
    endloop
  endfacet
  facet normal 9.778178e-01 -2.094572e-01 0.000000e+00
    outer loop
      vertex 2.280638e+01 -1.024055e+01 1.500000e+02
      vertex 2.500000e+01 -3.061617e-15 -1.500000e+02
      vertex 2.500000e+01 -3.061617e-15 1.500000e+02
    endloop
  endfacet
  facet normal 0.000000e+00 0.000000e+00 -1.000000e+00
    outer loop
      vertex -1.250068e+01 2.165002e+01 -1.500000e+02
      vertex 1.250068e+01 2.165002e+01 -1.500000e+02
      vertex 2.165002e+01 1.250068e+01 -1.500000e+02
    endloop
  endfacet
  facet normal 7.071042e-01 7.071042e-01 -2.695935e-03
    outer loop
      vertex 1.661059e+01 1.868391e+01 1.500000e+02
      vertex 2.165002e+01 1.250068e+01 -1.500000e+02
      vertex 1.250068e+01 2.165002e+01 -1.500000e+02
    endloop
  endfacet
  facet normal 0.000000e+00 0.000000e+00 -1.000000e+00
    outer loop
      vertex -2.165002e+01 1.250068e+01 -1.500000e+02
      vertex -1.250068e+01 2.165002e+01 -1.500000e+02
      vertex 2.165002e+01 1.250068e+01 -1.500000e+02
    endloop
  endfacet
  facet normal 8.062221e-01 5.916115e-01 1.349446e-03
    outer loop
      vertex 2.280638e+01 1.024055e+01 1.500000e+02
      vertex 2.165002e+01 1.250068e+01 -1.500000e+02
      vertex 1.661059e+01 1.868391e+01 1.500000e+02
    endloop
  endfacet
  facet normal 9.778155e-01 2.094567e-01 -2.191039e-03
    outer loop
      vertex 2.500000e+01 -3.061617e-15 1.500000e+02
      vertex 2.165002e+01 1.250068e+01 -1.500000e+02
      vertex 2.280638e+01 1.024055e+01 1.500000e+02
    endloop
  endfacet
  facet normal 0.000000e+00 0.000000e+00 -1.000000e+00
    outer loop
      vertex -1.250068e+01 2.165002e+01 -1.500000e+02
      vertex 1.530808e-15 2.500000e+01 -1.500000e+02
      vertex 1.250068e+01 2.165002e+01 -1.500000e+02
    endloop
  endfacet
  facet normal 2.588493e-01 9.659138e-01 -2.763669e-03
    outer loop
      vertex 7.500000e+00 2.384848e+01 1.500000e+02
      vertex 1.250068e+01 2.165002e+01 -1.500000e+02
      vertex 1.530808e-15 2.500000e+01 -1.500000e+02
    endloop
  endfacet
  facet normal 4.931496e-01 8.699426e-01 1.845166e-03
    outer loop
      vertex 1.661059e+01 1.868391e+01 1.500000e+02
      vertex 1.250068e+01 2.165002e+01 -1.500000e+02
      vertex 7.500000e+00 2.384848e+01 1.500000e+02
    endloop
  endfacet
  facet normal -2.588503e-01 9.659175e-01 2.019028e-10
    outer loop
      vertex 3.158994e-07 2.500000e+01 2.550000e+02
      vertex 1.530808e-15 2.500000e+01 -1.500000e+02
      vertex -1.250068e+01 2.165002e+01 -1.500000e+02
    endloop
  endfacet
  facet normal 1.517577e-01 9.884177e-01 -3.344348e-17
    outer loop
      vertex 7.500000e+00 2.384848e+01 2.550000e+02
      vertex 7.500000e+00 2.384848e+01 1.500000e+02
      vertex 1.530808e-15 2.500000e+01 -1.500000e+02
    endloop
  endfacet
  facet normal 1.517577e-01 9.884177e-01 -1.183708e-10
    outer loop
      vertex 3.158994e-07 2.500000e+01 2.550000e+02
      vertex 7.500000e+00 2.384848e+01 2.550000e+02
      vertex 1.530808e-15 2.500000e+01 -1.500000e+02
    endloop
  endfacet
  facet normal -7.071042e-01 7.071042e-01 -2.695935e-03
    outer loop
      vertex -1.661059e+01 1.868391e+01 1.500000e+02
      vertex -1.250068e+01 2.165002e+01 -1.500000e+02
      vertex -2.165002e+01 1.250068e+01 -1.500000e+02
    endloop
  endfacet
  facet normal -4.931496e-01 8.699426e-01 1.845166e-03
    outer loop
      vertex -1.661059e+01 1.868391e+01 1.500000e+02
      vertex -7.500000e+00 2.384848e+01 1.500000e+02
      vertex -1.250068e+01 2.165002e+01 -1.500000e+02
    endloop
  endfacet
  facet normal -6.630022e-02 9.977804e-01 -6.206785e-03
    outer loop
      vertex 3.158994e-07 2.500000e+01 2.550000e+02
      vertex -1.250068e+01 2.165002e+01 -1.500000e+02
      vertex -7.500000e+00 2.384848e+01 1.500000e+02
    endloop
  endfacet
  facet normal -9.659159e-01 2.588499e-01 -1.773054e-03
    outer loop
      vertex -2.280638e+01 1.024055e+01 1.500000e+02
      vertex -2.165002e+01 1.250068e+01 -1.500000e+02
      vertex -2.500000e+01 3.061617e-15 -1.500000e+02
    endloop
  endfacet
  facet normal -8.062221e-01 5.916115e-01 1.349446e-03
    outer loop
      vertex -1.661059e+01 1.868391e+01 1.500000e+02
      vertex -2.165002e+01 1.250068e+01 -1.500000e+02
      vertex -2.280638e+01 1.024055e+01 1.500000e+02
    endloop
  endfacet
  facet normal 0.000000e+00 0.000000e+00 -1.000000e+00
    outer loop
      vertex 2.165002e+01 -1.250068e+01 -1.500000e+02
      vertex -2.165002e+01 -1.250068e+01 -1.500000e+02
      vertex -2.500000e+01 3.061617e-15 -1.500000e+02
    endloop
  endfacet
  facet normal -9.659175e-01 -2.588503e-01 0.000000e+00
    outer loop
      vertex -2.500000e+01 3.061617e-15 1.500000e+02
      vertex -2.500000e+01 3.061617e-15 -1.500000e+02
      vertex -2.165002e+01 -1.250068e+01 -1.500000e+02
    endloop
  endfacet
  facet normal -9.778178e-01 2.094572e-01 0.000000e+00
    outer loop
      vertex -2.280638e+01 1.024055e+01 1.500000e+02
      vertex -2.500000e+01 3.061617e-15 -1.500000e+02
      vertex -2.500000e+01 3.061617e-15 1.500000e+02
    endloop
  endfacet
  facet normal 0.000000e+00 0.000000e+00 -1.000000e+00
    outer loop
      vertex 1.250068e+01 -2.165002e+01 -1.500000e+02
      vertex -1.250068e+01 -2.165002e+01 -1.500000e+02
      vertex -2.165002e+01 -1.250068e+01 -1.500000e+02
    endloop
  endfacet
  facet normal -7.071042e-01 -7.071042e-01 -2.695935e-03
    outer loop
      vertex -1.661059e+01 -1.868391e+01 1.500000e+02
      vertex -2.165002e+01 -1.250068e+01 -1.500000e+02
      vertex -1.250068e+01 -2.165002e+01 -1.500000e+02
    endloop
  endfacet
  facet normal 0.000000e+00 0.000000e+00 -1.000000e+00
    outer loop
      vertex 2.165002e+01 -1.250068e+01 -1.500000e+02
      vertex 1.250068e+01 -2.165002e+01 -1.500000e+02
      vertex -2.165002e+01 -1.250068e+01 -1.500000e+02
    endloop
  endfacet
  facet normal -8.062221e-01 -5.916115e-01 1.349446e-03
    outer loop
      vertex -2.280638e+01 -1.024055e+01 1.500000e+02
      vertex -2.165002e+01 -1.250068e+01 -1.500000e+02
      vertex -1.661059e+01 -1.868391e+01 1.500000e+02
    endloop
  endfacet
  facet normal -9.778155e-01 -2.094567e-01 -2.191039e-03
    outer loop
      vertex -2.500000e+01 3.061617e-15 1.500000e+02
      vertex -2.165002e+01 -1.250068e+01 -1.500000e+02
      vertex -2.280638e+01 -1.024055e+01 1.500000e+02
    endloop
  endfacet
  facet normal 0.000000e+00 0.000000e+00 -1.000000e+00
    outer loop
      vertex 1.250068e+01 -2.165002e+01 -1.500000e+02
      vertex -4.592425e-15 -2.500000e+01 -1.500000e+02
      vertex -1.250068e+01 -2.165002e+01 -1.500000e+02
    endloop
  endfacet
  facet normal -2.588493e-01 -9.659138e-01 -2.763669e-03
    outer loop
      vertex -7.500000e+00 -2.384848e+01 1.500000e+02
      vertex -1.250068e+01 -2.165002e+01 -1.500000e+02
      vertex -4.592425e-15 -2.500000e+01 -1.500000e+02
    endloop
  endfacet
  facet normal -4.931496e-01 -8.699426e-01 1.845166e-03
    outer loop
      vertex -1.661059e+01 -1.868391e+01 1.500000e+02
      vertex -1.250068e+01 -2.165002e+01 -1.500000e+02
      vertex -7.500000e+00 -2.384848e+01 1.500000e+02
    endloop
  endfacet
  facet normal 2.588503e-01 -9.659175e-01 2.065183e-10
    outer loop
      vertex -3.231207e-07 -2.500000e+01 2.550000e+02
      vertex -4.592425e-15 -2.500000e+01 -1.500000e+02
      vertex 1.250068e+01 -2.165002e+01 -1.500000e+02
    endloop
  endfacet
  facet normal -1.517577e-01 -9.884177e-01 6.688696e-17
    outer loop
      vertex -7.500000e+00 -2.384848e+01 2.550000e+02
      vertex -7.500000e+00 -2.384848e+01 1.500000e+02
      vertex -4.592425e-15 -2.500000e+01 -1.500000e+02
    endloop
  endfacet
  facet normal -1.517577e-01 -9.884177e-01 -1.210767e-10
    outer loop
      vertex -3.231207e-07 -2.500000e+01 2.550000e+02
      vertex -7.500000e+00 -2.384848e+01 2.550000e+02
      vertex -4.592425e-15 -2.500000e+01 -1.500000e+02
    endloop
  endfacet
  facet normal 7.071042e-01 -7.071042e-01 -2.695935e-03
    outer loop
      vertex 1.661059e+01 -1.868391e+01 1.500000e+02
      vertex 1.250068e+01 -2.165002e+01 -1.500000e+02
      vertex 2.165002e+01 -1.250068e+01 -1.500000e+02
    endloop
  endfacet
  facet normal 4.931496e-01 -8.699426e-01 1.845166e-03
    outer loop
      vertex 1.661059e+01 -1.868391e+01 1.500000e+02
      vertex 7.500000e+00 -2.384848e+01 1.500000e+02
      vertex 1.250068e+01 -2.165002e+01 -1.500000e+02
    endloop
  endfacet
  facet normal 6.630022e-02 -9.977804e-01 -6.206785e-03
    outer loop
      vertex -3.231207e-07 -2.500000e+01 2.550000e+02
      vertex 1.250068e+01 -2.165002e+01 -1.500000e+02
      vertex 7.500000e+00 -2.384848e+01 1.500000e+02
    endloop
  endfacet
  facet normal 8.062221e-01 -5.916115e-01 1.349446e-03
    outer loop
      vertex 1.661059e+01 -1.868391e+01 1.500000e+02
      vertex 2.165002e+01 -1.250068e+01 -1.500000e+02
      vertex 2.280638e+01 -1.024055e+01 1.500000e+02
    endloop
  endfacet
  facet normal 0.000000e+00 0.000000e+00 1.000000e+00
    outer loop
      vertex 1.661059e+01 -1.868391e+01 1.500000e+02
      vertex 7.500000e+00 2.384848e+01 1.500000e+02
      vertex 7.500000e+00 -2.384848e+01 1.500000e+02
    endloop
  endfacet
  facet normal 1.000000e+00 0.000000e+00 0.000000e+00
    outer loop
      vertex 7.500000e+00 2.384848e+01 2.550000e+02
      vertex 7.500000e+00 -2.384848e+01 1.500000e+02
      vertex 7.500000e+00 2.384848e+01 1.500000e+02
    endloop
  endfacet
  facet normal 1.000000e+00 0.000000e+00 0.000000e+00
    outer loop
      vertex 7.500000e+00 1.213336e+01 2.361825e+02
      vertex 7.500000e+00 -2.384848e+01 1.500000e+02
      vertex 7.500000e+00 2.384848e+01 2.550000e+02
    endloop
  endfacet
  facet normal 1.517577e-01 -9.884177e-01 0.000000e+00
    outer loop
      vertex -3.231207e-07 -2.500000e+01 2.550000e+02
      vertex 7.500000e+00 -2.384848e+01 1.500000e+02
      vertex 7.500000e+00 -2.384848e+01 2.550000e+02
    endloop
  endfacet
  facet normal 1.000000e+00 0.000000e+00 0.000000e+00
    outer loop
      vertex 7.500000e+00 -1.500000e+01 2.450000e+02
      vertex 7.500000e+00 -2.384848e+01 2.550000e+02
      vertex 7.500000e+00 -2.384848e+01 1.500000e+02
    endloop
  endfacet
  facet normal 1.000000e+00 0.000000e+00 0.000000e+00
    outer loop
      vertex 7.500000e+00 -1.213336e+01 2.361825e+02
      vertex 7.500000e+00 -1.500000e+01 2.450000e+02
      vertex 7.500000e+00 -2.384848e+01 1.500000e+02
    endloop
  endfacet
  facet normal 1.000000e+00 0.000000e+00 0.000000e+00
    outer loop
      vertex 7.500000e+00 -4.638334e+00 2.307357e+02
      vertex 7.500000e+00 -1.213336e+01 2.361825e+02
      vertex 7.500000e+00 -2.384848e+01 1.500000e+02
    endloop
  endfacet
  facet normal 1.000000e+00 0.000000e+00 0.000000e+00
    outer loop
      vertex 7.500000e+00 4.638334e+00 2.307357e+02
      vertex 7.500000e+00 -4.638334e+00 2.307357e+02
      vertex 7.500000e+00 -2.384848e+01 1.500000e+02
    endloop
  endfacet
  facet normal 1.000000e+00 0.000000e+00 0.000000e+00
    outer loop
      vertex 7.500000e+00 1.213336e+01 2.361825e+02
      vertex 7.500000e+00 4.638334e+00 2.307357e+02
      vertex 7.500000e+00 -2.384848e+01 1.500000e+02
    endloop
  endfacet
  facet normal 0.000000e+00 0.000000e+00 1.000000e+00
    outer loop
      vertex 1.661059e+01 -1.868391e+01 1.500000e+02
      vertex 1.661059e+01 1.868391e+01 1.500000e+02
      vertex 7.500000e+00 2.384848e+01 1.500000e+02
    endloop
  endfacet
  facet normal 0.000000e+00 0.000000e+00 1.000000e+00
    outer loop
      vertex 2.280638e+01 -1.024055e+01 1.500000e+02
      vertex 2.280638e+01 1.024055e+01 1.500000e+02
      vertex 1.661059e+01 1.868391e+01 1.500000e+02
    endloop
  endfacet
  facet normal 0.000000e+00 0.000000e+00 1.000000e+00
    outer loop
      vertex 1.661059e+01 -1.868391e+01 1.500000e+02
      vertex 2.280638e+01 -1.024055e+01 1.500000e+02
      vertex 1.661059e+01 1.868391e+01 1.500000e+02
    endloop
  endfacet
  facet normal 0.000000e+00 0.000000e+00 1.000000e+00
    outer loop
      vertex 2.280638e+01 -1.024055e+01 1.500000e+02
      vertex 2.500000e+01 -3.061617e-15 1.500000e+02
      vertex 2.280638e+01 1.024055e+01 1.500000e+02
    endloop
  endfacet
  facet normal 0.000000e+00 0.000000e+00 1.000000e+00
    outer loop
      vertex -1.661059e+01 1.868391e+01 1.500000e+02
      vertex -7.500000e+00 -2.384848e+01 1.500000e+02
      vertex -7.500000e+00 2.384848e+01 1.500000e+02
    endloop
  endfacet
  facet normal -1.000000e+00 0.000000e+00 0.000000e+00
    outer loop
      vertex -7.500000e+00 -2.384848e+01 2.550000e+02
      vertex -7.500000e+00 2.384848e+01 1.500000e+02
      vertex -7.500000e+00 -2.384848e+01 1.500000e+02
    endloop
  endfacet
  facet normal -1.517577e-01 9.884177e-01 0.000000e+00
    outer loop
      vertex 3.158994e-07 2.500000e+01 2.550000e+02
      vertex -7.500000e+00 2.384848e+01 1.500000e+02
      vertex -7.500000e+00 2.384848e+01 2.550000e+02
    endloop
  endfacet
  facet normal -1.000000e+00 0.000000e+00 0.000000e+00
    outer loop
      vertex -7.500000e+00 1.500000e+01 2.450000e+02
      vertex -7.500000e+00 2.384848e+01 2.550000e+02
      vertex -7.500000e+00 2.384848e+01 1.500000e+02
    endloop
  endfacet
  facet normal -1.000000e+00 0.000000e+00 0.000000e+00
    outer loop
      vertex -7.500000e+00 -1.213336e+01 2.361825e+02
      vertex -7.500000e+00 2.384848e+01 1.500000e+02
      vertex -7.500000e+00 -2.384848e+01 2.550000e+02
    endloop
  endfacet
  facet normal -1.000000e+00 0.000000e+00 0.000000e+00
    outer loop
      vertex -7.500000e+00 1.213336e+01 2.361825e+02
      vertex -7.500000e+00 1.500000e+01 2.450000e+02
      vertex -7.500000e+00 2.384848e+01 1.500000e+02
    endloop
  endfacet
  facet normal -1.000000e+00 0.000000e+00 0.000000e+00
    outer loop
      vertex -7.500000e+00 4.638334e+00 2.307357e+02
      vertex -7.500000e+00 1.213336e+01 2.361825e+02
      vertex -7.500000e+00 2.384848e+01 1.500000e+02
    endloop
  endfacet
  facet normal -1.000000e+00 0.000000e+00 0.000000e+00
    outer loop
      vertex -7.500000e+00 -4.638334e+00 2.307357e+02
      vertex -7.500000e+00 4.638334e+00 2.307357e+02
      vertex -7.500000e+00 2.384848e+01 1.500000e+02
    endloop
  endfacet
  facet normal -1.000000e+00 0.000000e+00 0.000000e+00
    outer loop
      vertex -7.500000e+00 -1.213336e+01 2.361825e+02
      vertex -7.500000e+00 -4.638334e+00 2.307357e+02
      vertex -7.500000e+00 2.384848e+01 1.500000e+02
    endloop
  endfacet
  facet normal 0.000000e+00 0.000000e+00 1.000000e+00
    outer loop
      vertex -1.661059e+01 1.868391e+01 1.500000e+02
      vertex -1.661059e+01 -1.868391e+01 1.500000e+02
      vertex -7.500000e+00 -2.384848e+01 1.500000e+02
    endloop
  endfacet
  facet normal 0.000000e+00 0.000000e+00 1.000000e+00
    outer loop
      vertex -2.280638e+01 1.024055e+01 1.500000e+02
      vertex -2.280638e+01 -1.024055e+01 1.500000e+02
      vertex -1.661059e+01 -1.868391e+01 1.500000e+02
    endloop
  endfacet
  facet normal 0.000000e+00 0.000000e+00 1.000000e+00
    outer loop
      vertex -1.661059e+01 1.868391e+01 1.500000e+02
      vertex -2.280638e+01 1.024055e+01 1.500000e+02
      vertex -1.661059e+01 -1.868391e+01 1.500000e+02
    endloop
  endfacet
  facet normal 0.000000e+00 0.000000e+00 1.000000e+00
    outer loop
      vertex -2.280638e+01 1.024055e+01 1.500000e+02
      vertex -2.500000e+01 3.061617e-15 1.500000e+02
      vertex -2.280638e+01 -1.024055e+01 1.500000e+02
    endloop
  endfacet
  facet normal -1.466993e-01 9.554719e-01 2.560327e-01
    outer loop
      vertex 7.534245e-04 2.299038e+01 2.625000e+02
      vertex 3.158994e-07 2.500000e+01 2.550000e+02
      vertex -7.500000e+00 2.384848e+01 2.550000e+02
    endloop
  endfacet
  facet normal -1.000000e+00 0.000000e+00 0.000000e+00
    outer loop
      vertex -7.500000e+00 1.213336e+01 2.538175e+02
      vertex -7.500000e+00 4.638334e+00 2.592643e+02
      vertex -7.500000e+00 2.384848e+01 2.550000e+02
    endloop
  endfacet
  facet normal -1.000000e+00 0.000000e+00 0.000000e+00
    outer loop
      vertex -7.500000e+00 2.172832e+01 2.625054e+02
      vertex -7.500000e+00 2.384848e+01 2.550000e+02
      vertex -7.500000e+00 4.638334e+00 2.592643e+02
    endloop
  endfacet
  facet normal -1.000000e+00 0.000000e+00 0.000000e+00
    outer loop
      vertex -7.500000e+00 1.500000e+01 2.450000e+02
      vertex -7.500000e+00 1.213336e+01 2.538175e+02
      vertex -7.500000e+00 2.384848e+01 2.550000e+02
    endloop
  endfacet
  facet normal -1.596510e-01 9.499973e-01 2.683592e-01
    outer loop
      vertex 7.534245e-04 2.299038e+01 2.625000e+02
      vertex -7.500000e+00 2.384848e+01 2.550000e+02
      vertex -7.500000e+00 2.172832e+01 2.625054e+02
    endloop
  endfacet
  facet normal 1.467004e-01 9.554791e-01 2.560051e-01
    outer loop
      vertex 7.534245e-04 2.299038e+01 2.625000e+02
      vertex 7.500000e+00 2.384848e+01 2.550000e+02
      vertex 3.158994e-07 2.500000e+01 2.550000e+02
    endloop
  endfacet
  facet normal 1.000000e+00 0.000000e+00 0.000000e+00
    outer loop
      vertex 7.500000e+00 1.500000e+01 2.450000e+02
      vertex 7.500000e+00 1.213336e+01 2.361825e+02
      vertex 7.500000e+00 2.384848e+01 2.550000e+02
    endloop
  endfacet
  facet normal 1.000000e+00 0.000000e+00 0.000000e+00
    outer loop
      vertex 7.500000e+00 1.213336e+01 2.538175e+02
      vertex 7.500000e+00 1.500000e+01 2.450000e+02
      vertex 7.500000e+00 2.384848e+01 2.550000e+02
    endloop
  endfacet
  facet normal 1.000000e+00 0.000000e+00 0.000000e+00
    outer loop
      vertex 7.500000e+00 4.638334e+00 2.592643e+02
      vertex 7.500000e+00 1.213336e+01 2.538175e+02
      vertex 7.500000e+00 2.384848e+01 2.550000e+02
    endloop
  endfacet
  facet normal 1.000000e+00 0.000000e+00 0.000000e+00
    outer loop
      vertex 7.500000e+00 2.172826e+01 2.625054e+02
      vertex 7.500000e+00 4.638334e+00 2.592643e+02
      vertex 7.500000e+00 2.384848e+01 2.550000e+02
    endloop
  endfacet
  facet normal 1.596894e-01 9.499893e-01 2.683647e-01
    outer loop
      vertex 7.534245e-04 2.299038e+01 2.625000e+02
      vertex 7.500000e+00 2.172826e+01 2.625054e+02
      vertex 7.500000e+00 2.384848e+01 2.550000e+02
    endloop
  endfacet
  facet normal 1.466993e-01 -9.554719e-01 2.560327e-01
    outer loop
      vertex -7.534134e-04 -2.299038e+01 2.625000e+02
      vertex -3.231207e-07 -2.500000e+01 2.550000e+02
      vertex 7.500000e+00 -2.384848e+01 2.550000e+02
    endloop
  endfacet
  facet normal 1.000000e+00 0.000000e+00 0.000000e+00
    outer loop
      vertex 7.500000e+00 -1.213336e+01 2.538175e+02
      vertex 7.500000e+00 -2.384848e+01 2.550000e+02
      vertex 7.500000e+00 -1.500000e+01 2.450000e+02
    endloop
  endfacet
  facet normal 1.000000e+00 0.000000e+00 0.000000e+00
    outer loop
      vertex 7.500000e+00 -1.213336e+01 2.538175e+02
      vertex 7.500000e+00 -4.638334e+00 2.592643e+02
      vertex 7.500000e+00 -2.384848e+01 2.550000e+02
    endloop
  endfacet
  facet normal 1.000000e+00 0.000000e+00 0.000000e+00
    outer loop
      vertex 7.500000e+00 -2.172832e+01 2.625054e+02
      vertex 7.500000e+00 -2.384848e+01 2.550000e+02
      vertex 7.500000e+00 -4.638334e+00 2.592643e+02
    endloop
  endfacet
  facet normal 1.596510e-01 -9.499973e-01 2.683592e-01
    outer loop
      vertex -7.534134e-04 -2.299038e+01 2.625000e+02
      vertex 7.500000e+00 -2.384848e+01 2.550000e+02
      vertex 7.500000e+00 -2.172832e+01 2.625054e+02
    endloop
  endfacet
  facet normal -1.467004e-01 -9.554791e-01 2.560051e-01
    outer loop
      vertex -7.534134e-04 -2.299038e+01 2.625000e+02
      vertex -7.500000e+00 -2.384848e+01 2.550000e+02
      vertex -3.231207e-07 -2.500000e+01 2.550000e+02
    endloop
  endfacet
  facet normal -1.000000e+00 0.000000e+00 0.000000e+00
    outer loop
      vertex -7.500000e+00 -1.213336e+01 2.538175e+02
      vertex -7.500000e+00 -1.500000e+01 2.450000e+02
      vertex -7.500000e+00 -2.384848e+01 2.550000e+02
    endloop
  endfacet
  facet normal -1.000000e+00 0.000000e+00 0.000000e+00
    outer loop
      vertex -7.500000e+00 -1.213336e+01 2.361825e+02
      vertex -7.500000e+00 -2.384848e+01 2.550000e+02
      vertex -7.500000e+00 -1.500000e+01 2.450000e+02
    endloop
  endfacet
  facet normal -1.000000e+00 0.000000e+00 0.000000e+00
    outer loop
      vertex -7.500000e+00 -4.638334e+00 2.592643e+02
      vertex -7.500000e+00 -1.213336e+01 2.538175e+02
      vertex -7.500000e+00 -2.384848e+01 2.550000e+02
    endloop
  endfacet
  facet normal -1.000000e+00 0.000000e+00 0.000000e+00
    outer loop
      vertex -7.500000e+00 -2.172826e+01 2.625054e+02
      vertex -7.500000e+00 -4.638334e+00 2.592643e+02
      vertex -7.500000e+00 -2.384848e+01 2.550000e+02
    endloop
  endfacet
  facet normal -1.596894e-01 -9.499893e-01 2.683647e-01
    outer loop
      vertex -7.534134e-04 -2.299038e+01 2.625000e+02
      vertex -7.500000e+00 -2.172826e+01 2.625054e+02
      vertex -7.500000e+00 -2.384848e+01 2.550000e+02
    endloop
  endfacet
  facet normal 0.000000e+00 0.000000e+00 1.000000e+00
    outer loop
      vertex 7.500000e+00 6.614378e+00 2.700000e+02
      vertex -7.500000e+00 6.614378e+00 2.700000e+02
      vertex -7.500000e+00 -6.614378e+00 2.700000e+02
    endloop
  endfacet
  facet normal -1.000000e+00 0.000000e+00 0.000000e+00
    outer loop
      vertex -7.500000e+00 1.468510e+01 2.685236e+02
      vertex -7.500000e+00 -6.614378e+00 2.700000e+02
      vertex -7.500000e+00 6.614378e+00 2.700000e+02
    endloop
  endfacet
  facet normal 0.000000e+00 0.000000e+00 1.000000e+00
    outer loop
      vertex 7.500000e+00 -6.614378e+00 2.700000e+02
      vertex 7.500000e+00 6.614378e+00 2.700000e+02
      vertex -7.500000e+00 -6.614378e+00 2.700000e+02
    endloop
  endfacet
  facet normal 0.000000e+00 0.000000e+00 1.000000e+00
    outer loop
      vertex -2.793933e+00 -9.601118e+00 2.700000e+02
      vertex 7.500000e+00 -6.614378e+00 2.700000e+02
      vertex -7.500000e+00 -6.614378e+00 2.700000e+02
    endloop
  endfacet
  facet normal -1.132493e-01 -1.784416e-01 9.774115e-01
    outer loop
      vertex -7.500000e+00 -1.467284e+01 2.685288e+02
      vertex -2.793933e+00 -9.601118e+00 2.700000e+02
      vertex -7.500000e+00 -6.614378e+00 2.700000e+02
    endloop
  endfacet
  facet normal -1.000000e+00 0.000000e+00 0.000000e+00
    outer loop
      vertex -7.500000e+00 -1.467284e+01 2.685288e+02
      vertex -7.500000e+00 -6.614378e+00 2.700000e+02
      vertex -7.500000e+00 1.468510e+01 2.685236e+02
    endloop
  endfacet
  facet normal 0.000000e+00 0.000000e+00 1.000000e+00
    outer loop
      vertex 2.793931e+00 9.601119e+00 2.700000e+02
      vertex -2.793710e+00 9.601184e+00 2.700000e+02
      vertex -7.500000e+00 6.614378e+00 2.700000e+02
    endloop
  endfacet
  facet normal -1.134663e-01 1.787880e-01 9.773230e-01
    outer loop
      vertex -7.500000e+00 1.468510e+01 2.685236e+02
      vertex -7.500000e+00 6.614378e+00 2.700000e+02
      vertex -2.793710e+00 9.601184e+00 2.700000e+02
    endloop
  endfacet
  facet normal 0.000000e+00 0.000000e+00 1.000000e+00
    outer loop
      vertex 7.500000e+00 6.614378e+00 2.700000e+02
      vertex 2.793931e+00 9.601119e+00 2.700000e+02
      vertex -7.500000e+00 6.614378e+00 2.700000e+02
    endloop
  endfacet
  facet normal 2.854772e-06 2.463113e-01 9.691908e-01
    outer loop
      vertex 9.149319e-04 1.749320e+01 2.679943e+02
      vertex -2.793710e+00 9.601184e+00 2.700000e+02
      vertex 2.793931e+00 9.601119e+00 2.700000e+02
    endloop
  endfacet
  facet normal 1.753236e-01 4.207840e-01 8.900576e-01
    outer loop
      vertex -7.500000e+00 1.468510e+01 2.685236e+02
      vertex -2.793710e+00 9.601184e+00 2.700000e+02
      vertex -7.500000e+00 1.576516e+01 2.680130e+02
    endloop
  endfacet
  facet normal -5.874315e-02 2.653761e-01 9.623538e-01
    outer loop
      vertex 9.149319e-04 1.749320e+01 2.679943e+02
      vertex -7.500000e+00 1.576516e+01 2.680130e+02
      vertex -2.793710e+00 9.601184e+00 2.700000e+02
    endloop
  endfacet
  facet normal 1.132492e-01 1.784415e-01 9.774115e-01
    outer loop
      vertex 7.500000e+00 1.467284e+01 2.685288e+02
      vertex 2.793931e+00 9.601119e+00 2.700000e+02
      vertex 7.500000e+00 6.614378e+00 2.700000e+02
    endloop
  endfacet
  facet normal -1.746627e-01 4.203532e-01 8.903910e-01
    outer loop
      vertex 7.500000e+00 1.576285e+01 2.680142e+02
      vertex 2.793931e+00 9.601119e+00 2.700000e+02
      vertex 7.500000e+00 1.467284e+01 2.685288e+02
    endloop
  endfacet
  facet normal 5.867036e-02 2.653399e-01 9.623682e-01
    outer loop
      vertex 9.149319e-04 1.749320e+01 2.679943e+02
      vertex 2.793931e+00 9.601119e+00 2.700000e+02
      vertex 7.500000e+00 1.576285e+01 2.680142e+02
    endloop
  endfacet
  facet normal 1.000000e+00 0.000000e+00 0.000000e+00
    outer loop
      vertex 7.500000e+00 -1.468510e+01 2.685236e+02
      vertex 7.500000e+00 6.614378e+00 2.700000e+02
      vertex 7.500000e+00 -6.614378e+00 2.700000e+02
    endloop
  endfacet
  facet normal 1.000000e+00 0.000000e+00 0.000000e+00
    outer loop
      vertex 7.500000e+00 -1.468510e+01 2.685236e+02
      vertex 7.500000e+00 1.467284e+01 2.685288e+02
      vertex 7.500000e+00 6.614378e+00 2.700000e+02
    endloop
  endfacet
  facet normal 0.000000e+00 0.000000e+00 1.000000e+00
    outer loop
      vertex -2.793933e+00 -9.601118e+00 2.700000e+02
      vertex 2.793707e+00 -9.601184e+00 2.700000e+02
      vertex 7.500000e+00 -6.614378e+00 2.700000e+02
    endloop
  endfacet
  facet normal 1.134663e-01 -1.787881e-01 9.773230e-01
    outer loop
      vertex 7.500000e+00 -1.468510e+01 2.685236e+02
      vertex 7.500000e+00 -6.614378e+00 2.700000e+02
      vertex 2.793707e+00 -9.601184e+00 2.700000e+02
    endloop
  endfacet
  facet normal -2.905178e-06 -2.463113e-01 9.691908e-01
    outer loop
      vertex -9.149214e-04 -1.749320e+01 2.679943e+02
      vertex 2.793707e+00 -9.601184e+00 2.700000e+02
      vertex -2.793933e+00 -9.601118e+00 2.700000e+02
    endloop
  endfacet
  facet normal -1.753235e-01 -4.207841e-01 8.900575e-01
    outer loop
      vertex 7.500000e+00 -1.468510e+01 2.685236e+02
      vertex 2.793707e+00 -9.601184e+00 2.700000e+02
      vertex 7.500000e+00 -1.576516e+01 2.680130e+02
    endloop
  endfacet
  facet normal 5.874315e-02 -2.653761e-01 9.623538e-01
    outer loop
      vertex -9.149214e-04 -1.749320e+01 2.679943e+02
      vertex 7.500000e+00 -1.576516e+01 2.680130e+02
      vertex 2.793707e+00 -9.601184e+00 2.700000e+02
    endloop
  endfacet
  facet normal 1.746629e-01 -4.203533e-01 8.903909e-01
    outer loop
      vertex -7.500000e+00 -1.576285e+01 2.680142e+02
      vertex -2.793933e+00 -9.601118e+00 2.700000e+02
      vertex -7.500000e+00 -1.467284e+01 2.685288e+02
    endloop
  endfacet
  facet normal -5.867036e-02 -2.653399e-01 9.623682e-01
    outer loop
      vertex -9.149214e-04 -1.749320e+01 2.679943e+02
      vertex -2.793933e+00 -9.601118e+00 2.700000e+02
      vertex -7.500000e+00 -1.576285e+01 2.680142e+02
    endloop
  endfacet
  facet normal 2.252430e-16 9.510041e-01 3.091782e-01
    outer loop
      vertex -7.500000e+00 -1.500000e+01 2.450000e+02
      vertex 7.500000e+00 -1.500000e+01 2.450000e+02
      vertex 7.500000e+00 -1.213336e+01 2.361825e+02
    endloop
  endfacet
  facet normal 3.378645e-16 9.510041e-01 -3.091782e-01
    outer loop
      vertex -7.500000e+00 -1.213336e+01 2.538175e+02
      vertex 7.500000e+00 -1.213336e+01 2.538175e+02
      vertex 7.500000e+00 -1.500000e+01 2.450000e+02
    endloop
  endfacet
  facet normal 2.299047e-16 9.510041e-01 -3.091782e-01
    outer loop
      vertex -7.500000e+00 -1.213336e+01 2.538175e+02
      vertex 7.500000e+00 -1.500000e+01 2.450000e+02
      vertex -7.500000e+00 -1.500000e+01 2.450000e+02
    endloop
  endfacet
  facet normal 2.088575e-16 5.878817e-01 8.089469e-01
    outer loop
      vertex -7.500000e+00 -1.213336e+01 2.361825e+02
      vertex 7.500000e+00 -1.213336e+01 2.361825e+02
      vertex 7.500000e+00 -4.638334e+00 2.307357e+02
    endloop
  endfacet
  facet normal 3.378645e-16 9.510041e-01 3.091782e-01
    outer loop
      vertex -7.500000e+00 -1.213336e+01 2.361825e+02
      vertex -7.500000e+00 -1.500000e+01 2.450000e+02
      vertex 7.500000e+00 -1.213336e+01 2.361825e+02
    endloop
  endfacet
  facet normal 0.000000e+00 0.000000e+00 1.000000e+00
    outer loop
      vertex -7.500000e+00 -4.638334e+00 2.307357e+02
      vertex 7.500000e+00 -4.638334e+00 2.307357e+02
      vertex 7.500000e+00 4.638334e+00 2.307357e+02
    endloop
  endfacet
  facet normal 1.022529e-16 5.878817e-01 8.089469e-01
    outer loop
      vertex -7.500000e+00 -1.213336e+01 2.361825e+02
      vertex 7.500000e+00 -4.638334e+00 2.307357e+02
      vertex -7.500000e+00 -4.638334e+00 2.307357e+02
    endloop
  endfacet
  facet normal 0.000000e+00 -5.878817e-01 8.089469e-01
    outer loop
      vertex -7.500000e+00 4.638334e+00 2.307357e+02
      vertex 7.500000e+00 4.638334e+00 2.307357e+02
      vertex 7.500000e+00 1.213336e+01 2.361825e+02
    endloop
  endfacet
  facet normal 0.000000e+00 0.000000e+00 1.000000e+00
    outer loop
      vertex -7.500000e+00 -4.638334e+00 2.307357e+02
      vertex 7.500000e+00 4.638334e+00 2.307357e+02
      vertex -7.500000e+00 4.638334e+00 2.307357e+02
    endloop
  endfacet
  facet normal 0.000000e+00 -9.510041e-01 3.091782e-01
    outer loop
      vertex -7.500000e+00 1.213336e+01 2.361825e+02
      vertex 7.500000e+00 1.213336e+01 2.361825e+02
      vertex 7.500000e+00 1.500000e+01 2.450000e+02
    endloop
  endfacet
  facet normal 0.000000e+00 -5.878817e-01 8.089469e-01
    outer loop
      vertex -7.500000e+00 4.638334e+00 2.307357e+02
      vertex 7.500000e+00 1.213336e+01 2.361825e+02
      vertex -7.500000e+00 1.213336e+01 2.361825e+02
    endloop
  endfacet
  facet normal -2.252430e-16 -9.510041e-01 -3.091782e-01
    outer loop
      vertex -7.500000e+00 1.500000e+01 2.450000e+02
      vertex 7.500000e+00 1.500000e+01 2.450000e+02
      vertex 7.500000e+00 1.213336e+01 2.538175e+02
    endloop
  endfacet
  facet normal -2.299047e-16 -9.510041e-01 3.091782e-01
    outer loop
      vertex -7.500000e+00 1.213336e+01 2.361825e+02
      vertex 7.500000e+00 1.500000e+01 2.450000e+02
      vertex -7.500000e+00 1.500000e+01 2.450000e+02
    endloop
  endfacet
  facet normal 6.961918e-17 -5.878817e-01 -8.089469e-01
    outer loop
      vertex -7.500000e+00 1.213336e+01 2.538175e+02
      vertex 7.500000e+00 1.213336e+01 2.538175e+02
      vertex 7.500000e+00 4.638334e+00 2.592643e+02
    endloop
  endfacet
  facet normal 1.021799e-16 -9.510041e-01 -3.091782e-01
    outer loop
      vertex -7.500000e+00 1.500000e+01 2.450000e+02
      vertex 7.500000e+00 1.213336e+01 2.538175e+02
      vertex -7.500000e+00 1.213336e+01 2.538175e+02
    endloop
  endfacet
  facet normal 1.000000e+00 0.000000e+00 0.000000e+00
    outer loop
      vertex 7.500000e+00 2.172826e+01 2.625054e+02
      vertex 7.500000e+00 -4.638334e+00 2.592643e+02
      vertex 7.500000e+00 4.638334e+00 2.592643e+02
    endloop
  endfacet
  facet normal 0.000000e+00 0.000000e+00 -1.000000e+00
    outer loop
      vertex -7.500000e+00 4.638334e+00 2.592643e+02
      vertex 7.500000e+00 4.638334e+00 2.592643e+02
      vertex 7.500000e+00 -4.638334e+00 2.592643e+02
    endloop
  endfacet
  facet normal 1.533793e-16 -5.878817e-01 -8.089469e-01
    outer loop
      vertex -7.500000e+00 1.213336e+01 2.538175e+02
      vertex 7.500000e+00 4.638334e+00 2.592643e+02
      vertex -7.500000e+00 4.638334e+00 2.592643e+02
    endloop
  endfacet
  facet normal 0.000000e+00 5.878817e-01 -8.089469e-01
    outer loop
      vertex -7.500000e+00 -4.638334e+00 2.592643e+02
      vertex 7.500000e+00 -4.638334e+00 2.592643e+02
      vertex 7.500000e+00 -1.213336e+01 2.538175e+02
    endloop
  endfacet
  facet normal 1.000000e+00 0.000000e+00 0.000000e+00
    outer loop
      vertex 7.500000e+00 -2.172832e+01 2.625054e+02
      vertex 7.500000e+00 -4.638334e+00 2.592643e+02
      vertex 7.500000e+00 2.172826e+01 2.625054e+02
    endloop
  endfacet
  facet normal 0.000000e+00 0.000000e+00 -1.000000e+00
    outer loop
      vertex -7.500000e+00 4.638334e+00 2.592643e+02
      vertex 7.500000e+00 -4.638334e+00 2.592643e+02
      vertex -7.500000e+00 -4.638334e+00 2.592643e+02
    endloop
  endfacet
  facet normal 2.045058e-16 5.878817e-01 -8.089469e-01
    outer loop
      vertex -7.500000e+00 -4.638334e+00 2.592643e+02
      vertex 7.500000e+00 -1.213336e+01 2.538175e+02
      vertex -7.500000e+00 -1.213336e+01 2.538175e+02
    endloop
  endfacet
  facet normal 1.000000e+00 0.000000e+00 0.000000e+00
    outer loop
      vertex 7.500000e+00 -1.576516e+01 2.680130e+02
      vertex 7.500000e+00 1.576285e+01 2.680142e+02
      vertex 7.500000e+00 1.467284e+01 2.685288e+02
    endloop
  endfacet
  facet normal 1.000000e+00 0.000000e+00 0.000000e+00
    outer loop
      vertex 7.500000e+00 -1.468510e+01 2.685236e+02
      vertex 7.500000e+00 -1.576516e+01 2.680130e+02
      vertex 7.500000e+00 1.467284e+01 2.685288e+02
    endloop
  endfacet
  facet normal 1.000000e+00 0.000000e+00 0.000000e+00
    outer loop
      vertex 7.500000e+00 -2.130189e+01 2.631641e+02
      vertex 7.500000e+00 2.129278e+01 2.631773e+02
      vertex 7.500000e+00 1.576285e+01 2.680142e+02
    endloop
  endfacet
  facet normal 1.482578e-01 6.510910e-01 7.443790e-01
    outer loop
      vertex 9.149319e-04 1.749320e+01 2.679943e+02
      vertex 7.500000e+00 1.576285e+01 2.680142e+02
      vertex 7.500000e+00 2.129278e+01 2.631773e+02
    endloop
  endfacet
  facet normal 1.000000e+00 0.000000e+00 0.000000e+00
    outer loop
      vertex 7.500000e+00 -1.576516e+01 2.680130e+02
      vertex 7.500000e+00 -2.130189e+01 2.631641e+02
      vertex 7.500000e+00 1.576285e+01 2.680142e+02
    endloop
  endfacet
  facet normal 1.000000e+00 0.000000e+00 0.000000e+00
    outer loop
      vertex 7.500000e+00 -2.172832e+01 2.625054e+02
      vertex 7.500000e+00 2.172826e+01 2.625054e+02
      vertex 7.500000e+00 2.129278e+01 2.631773e+02
    endloop
  endfacet
  facet normal -7.560027e-02 8.367580e-01 5.423289e-01
    outer loop
      vertex 9.149319e-04 1.749320e+01 2.679943e+02
      vertex 7.500000e+00 2.129278e+01 2.631773e+02
      vertex 7.500000e+00 2.172826e+01 2.625054e+02
    endloop
  endfacet
  facet normal 1.000000e+00 0.000000e+00 0.000000e+00
    outer loop
      vertex 7.500000e+00 -2.130189e+01 2.631641e+02
      vertex 7.500000e+00 -2.172832e+01 2.625054e+02
      vertex 7.500000e+00 2.129278e+01 2.631773e+02
    endloop
  endfacet
  facet normal 1.176427e-01 7.020145e-01 7.023787e-01
    outer loop
      vertex 7.534245e-04 2.299038e+01 2.625000e+02
      vertex 9.149319e-04 1.749320e+01 2.679943e+02
      vertex 7.500000e+00 2.172826e+01 2.625054e+02
    endloop
  endfacet
  facet normal -7.604976e-02 -8.370028e-01 5.418881e-01
    outer loop
      vertex -9.149214e-04 -1.749320e+01 2.679943e+02
      vertex 7.500000e+00 -2.172832e+01 2.625054e+02
      vertex 7.500000e+00 -2.130189e+01 2.631641e+02
    endloop
  endfacet
  facet normal 1.176126e-01 -7.020136e-01 7.023847e-01
    outer loop
      vertex -7.534134e-04 -2.299038e+01 2.625000e+02
      vertex 7.500000e+00 -2.172832e+01 2.625054e+02
      vertex -9.149214e-04 -1.749320e+01 2.679943e+02
    endloop
  endfacet
  facet normal 1.482520e-01 -6.515507e-01 7.439779e-01
    outer loop
      vertex -9.149214e-04 -1.749320e+01 2.679943e+02
      vertex 7.500000e+00 -2.130189e+01 2.631641e+02
      vertex 7.500000e+00 -1.576516e+01 2.680130e+02
    endloop
  endfacet
  facet normal -1.000000e+00 0.000000e+00 0.000000e+00
    outer loop
      vertex -7.500000e+00 -2.172826e+01 2.625054e+02
      vertex -7.500000e+00 4.638334e+00 2.592643e+02
      vertex -7.500000e+00 -4.638334e+00 2.592643e+02
    endloop
  endfacet
  facet normal -1.000000e+00 0.000000e+00 0.000000e+00
    outer loop
      vertex -7.500000e+00 -2.172826e+01 2.625054e+02
      vertex -7.500000e+00 2.172832e+01 2.625054e+02
      vertex -7.500000e+00 4.638334e+00 2.592643e+02
    endloop
  endfacet
  facet normal -1.000000e+00 0.000000e+00 0.000000e+00
    outer loop
      vertex -7.500000e+00 -2.129278e+01 2.631773e+02
      vertex -7.500000e+00 2.130189e+01 2.631641e+02
      vertex -7.500000e+00 2.172832e+01 2.625054e+02
    endloop
  endfacet
  facet normal 7.604973e-02 8.370028e-01 5.418881e-01
    outer loop
      vertex 9.149319e-04 1.749320e+01 2.679943e+02
      vertex -7.500000e+00 2.172832e+01 2.625054e+02
      vertex -7.500000e+00 2.130189e+01 2.631641e+02
    endloop
  endfacet
  facet normal -1.000000e+00 0.000000e+00 0.000000e+00
    outer loop
      vertex -7.500000e+00 -2.172826e+01 2.625054e+02
      vertex -7.500000e+00 -2.129278e+01 2.631773e+02
      vertex -7.500000e+00 2.172832e+01 2.625054e+02
    endloop
  endfacet
  facet normal -1.176126e-01 7.020136e-01 7.023847e-01
    outer loop
      vertex 7.534245e-04 2.299038e+01 2.625000e+02
      vertex -7.500000e+00 2.172832e+01 2.625054e+02
      vertex 9.149319e-04 1.749320e+01 2.679943e+02
    endloop
  endfacet
  facet normal -1.000000e+00 0.000000e+00 0.000000e+00
    outer loop
      vertex -7.500000e+00 -1.576285e+01 2.680142e+02
      vertex -7.500000e+00 1.576516e+01 2.680130e+02
      vertex -7.500000e+00 2.130189e+01 2.631641e+02
    endloop
  endfacet
  facet normal -1.482520e-01 6.515507e-01 7.439779e-01
    outer loop
      vertex 9.149319e-04 1.749320e+01 2.679943e+02
      vertex -7.500000e+00 2.130189e+01 2.631641e+02
      vertex -7.500000e+00 1.576516e+01 2.680130e+02
    endloop
  endfacet
  facet normal -1.000000e+00 0.000000e+00 0.000000e+00
    outer loop
      vertex -7.500000e+00 -2.129278e+01 2.631773e+02
      vertex -7.500000e+00 -1.576285e+01 2.680142e+02
      vertex -7.500000e+00 2.130189e+01 2.631641e+02
    endloop
  endfacet
  facet normal -1.000000e+00 0.000000e+00 0.000000e+00
    outer loop
      vertex -7.500000e+00 -1.467284e+01 2.685288e+02
      vertex -7.500000e+00 1.468510e+01 2.685236e+02
      vertex -7.500000e+00 1.576516e+01 2.680130e+02
    endloop
  endfacet
  facet normal -1.000000e+00 0.000000e+00 0.000000e+00
    outer loop
      vertex -7.500000e+00 -1.576285e+01 2.680142e+02
      vertex -7.500000e+00 -1.467284e+01 2.685288e+02
      vertex -7.500000e+00 1.576516e+01 2.680130e+02
    endloop
  endfacet
  facet normal -1.482578e-01 -6.510911e-01 7.443790e-01
    outer loop
      vertex -9.149214e-04 -1.749320e+01 2.679943e+02
      vertex -7.500000e+00 -1.576285e+01 2.680142e+02
      vertex -7.500000e+00 -2.129278e+01 2.631773e+02
    endloop
  endfacet
  facet normal 7.560030e-02 -8.367580e-01 5.423289e-01
    outer loop
      vertex -9.149214e-04 -1.749320e+01 2.679943e+02
      vertex -7.500000e+00 -2.129278e+01 2.631773e+02
      vertex -7.500000e+00 -2.172826e+01 2.625054e+02
    endloop
  endfacet
  facet normal -1.176427e-01 -7.020145e-01 7.023787e-01
    outer loop
      vertex -7.534134e-04 -2.299038e+01 2.625000e+02
      vertex -9.149214e-04 -1.749320e+01 2.679943e+02
      vertex -7.500000e+00 -2.172826e+01 2.625054e+02
    endloop
  endfacet
endsolid BAR
